<?xml version="1.0" encoding="UTF-8"?>
<svg xmlns="http://www.w3.org/2000/svg" xmlns:xlink="http://www.w3.org/1999/xlink" width="21em" height="21em" viewBox="0 0 21 21" version="1.1">
<defs>
  <g>
   <symbol overflow="visible" id="arxitics">
    <path stroke="#428bca" d="M 14.75 -4.09375 C 14.875 -2.53125 15.171875 -1.390625 15.296875 -0.921875 C 15.5625 0.203125 15.6875 0.75 16.75 0.75 C 17.875 0.75 19.78125 -0.375 19.78125 -0.875 C 19.78125 -0.984375 19.671875 -1.046875 19.546875 -1.046875 C 19.234375 -1.046875 18.703125 -0.765625 18.640625 -0.71875 C 18.46875 -0.625 18.40625 -0.625 18.359375 -0.625 C 17.671875 -0.625 17.515625 -1.28125 17.21875 -2.78125 C 17.046875 -3.59375 16.828125 -4.578125 16.625 -7.984375 C 16.453125 -10.5 16.359375 -13.03125 16.359375 -15.5625 C 16.359375 -16.15625 16.375 -16.796875 16.375 -17.390625 C 16.375 -17.796875 16.375 -17.890625 16.109375 -17.890625 C 15.765625 -17.890625 14.75 -17.46875 14.296875 -16.796875 L 14.125 -16.53125 C 12.171875 -12.34375 10.328125 -9.34375 9.046875 -7.328125 C 7.578125 -5.078125 5 -1.046875 3.671875 -1.046875 C 2.75 -1.046875 1.984375 -1.640625 1.765625 -2.53125 C 1.734375 -2.578125 1.6875 -2.71875 1.59375 -2.71875 C 1.21875 -2.71875 0.671875 -1.53125 0.671875 -0.84375 C 0.671875 0.15625 1.734375 1.234375 2.90625 1.234375 C 4.609375 1.234375 7.453125 -3.21875 8 -4.09375 Z M 14.25 -14.84375 L 14.25 -13.40625 C 14.25 -11.96875 14.296875 -10.53125 14.375 -9.09375 C 14.390625 -8.59375 14.5 -6.734375 14.625 -5.453125 L 10.09375 -5.453125 C 9.6875 -5.453125 9.3125 -5.453125 8.671875 -5.0625 C 10.40625 -7.734375 11.84375 -10.3125 12 -10.578125 C 13.234375 -12.78125 13.90625 -14.21875 14.21875 -14.84375 Z M 14.25 -14.84375 "/>
    </symbol>
  </g>
</defs>
<g fill="#428bca">
  <use xlink:href="#arxitics" x="0.283984" y="18.74102"/>
</g>
</svg>
